# xmcd
#
# Track frame offsets: 
#        150
#        19048
#        35491
#        55104
#        70802
#        90932
#        104699
#        119012
#        129989
#        150681
#        167596
#        187048
#        203174
#        220602
#
# Disc length: 3087 seconds
#
# Revision: 0
# Processed by: cddbd v1.5.2PL0 Copyright (c) Steve Scherf et al.
# Submitted via: ExactAudioCopy v0.95b4
#
DISCID=bc0c0d0e
DTITLE=Willie Nelson - It Always Will Be
DYEAR=2004
DGENRE=Country
TTITLE0=It Always Will Be
TTITLE1=Picture In A Frame
TTITLE2=The Way You See Me
TTITLE3=Be That As It May (with Paula Nelson)
TTITLE4=You Were It
TTITLE5=Big Booty
TTITLE6=I Didn't Come Here (And I Ain't Leavin')
TTITLE7=My Broken Heart Belongs To You
TTITLE8=Dreams Come True (with Norah Jones)
TTITLE9=Overtime (with Lucinda Williams)
TTITLE10=Tired
TTITLE11=Love's The One And Only Thing
TTITLE12=Texas
TTITLE13=Midnight Rider (with Toby Keith)
EXTD=
EXTT0=
EXTT1=
EXTT2=
EXTT3=
EXTT4=
EXTT5=
EXTT6=
EXTT7=
EXTT8=
EXTT9=
EXTT10=
EXTT11=
EXTT12=
EXTT13=
PLAYORDER=
